<?xml version="1.0" encoding="iso-8859-1"?>
<!-- Generator: Adobe Illustrator 19.0.0, SVG Export Plug-In . SVG Version: 6.00 Build 0)  -->
<svg version="1.1" id="Capa_1" xmlns="http://www.w3.org/2000/svg" xmlns:xlink="http://www.w3.org/1999/xlink" x="0px" y="0px"
	 viewBox="0 0 512 512" style="enable-background:new 0 0 512 512;" xml:space="preserve">
<g>
	<g>
		<path d="M440,0H204c0.004,0.009,0.006,0.016,0.01,0.025c-2.605-0.002-5.167,0.989-7.081,2.904l-88,88
			c-1.913,1.914-2.905,4.472-2.905,7.075c-0.008-0.001-0.016-0.002-0.024-0.004v320c0,16.542,13.458,30,30,30h304
			c16.542,0,30-13.458,30-30V30C470,13.458,456.542,0,440,0z M194,34.143V70.5c0,9.649-7.851,17.5-17.5,17.5h-36.358L194,34.143z
			 M450,418c0,5.514-4.486,10-10,10H136c-5.514,0-10-4.486-10-10V108h50.5c20.678,0,37.5-16.822,37.5-37.5V20h226
			c5.514,0,10,4.486,10,10V418z"/>
	</g>
</g>
<g>
	<g>
		<path d="M114.475,492h-10c-5.523,0-10,4.478-10,10c0,5.522,4.477,10,10,10h10c5.523,0,10-4.478,10-10
			C124.475,496.478,119.998,492,114.475,492z"/>
	</g>
</g>
<g>
	<g>
		<path d="M52,385.905c-5.523,0-10,4.478-10,10v10c0,5.523,4.477,10,10,10s10-4.478,10-10v-10C62,390.383,57.523,385.905,52,385.905
			z"/>
	</g>
</g>
<g>
	<g>
		<path d="M52,435.905c-5.523,0-10,4.478-10,10v10c0,5.522,4.477,10,10,10s10-4.477,10-10v-10C62,440.383,57.523,435.905,52,435.905
			z"/>
	</g>
</g>
<g>
	<g>
		<path d="M164.475,492h-10c-5.523,0-10,4.478-10,10c0,5.522,4.477,10,10,10h10c5.523,0,10-4.478,10-10
			C174.475,496.478,169.998,492,164.475,492z"/>
	</g>
</g>
<g>
	<g>
		<path d="M68.33,491.31c-1.55-0.613-2.938-1.619-4.015-2.909c-3.538-4.24-9.845-4.809-14.085-1.271
			c-4.24,3.538-4.809,9.845-1.271,14.085c3.211,3.849,7.366,6.854,12.016,8.692c1.207,0.478,2.451,0.704,3.674,0.704
			c3.983,0,7.749-2.396,9.302-6.325C75.983,499.15,73.466,493.34,68.33,491.31z"/>
	</g>
</g>
<g>
	<g>
		<path d="M52,135.905c-5.523,0-10,4.478-10,10v10c0,5.523,4.477,10,10,10s10-4.478,10-10v-10C62,140.383,57.523,135.905,52,135.905
			z"/>
	</g>
</g>
<g>
	<g>
		<path d="M52,85.905c-5.523,0-10,4.478-10,10v10c0,5.523,4.477,10,10,10s10-4.478,10-10v-10C62,90.383,57.523,85.905,52,85.905z"/>
	</g>
</g>
<g>
	<g>
		<path d="M52,185.905c-5.523,0-10,4.478-10,10v10c0,5.523,4.477,10,10,10s10-4.478,10-10v-10C62,190.383,57.523,185.905,52,185.905
			z"/>
	</g>
</g>
<g>
	<g>
		<path d="M52,335.905c-5.523,0-10,4.478-10,10v10c0,5.523,4.477,10,10,10s10-4.478,10-10v-10C62,340.383,57.523,335.905,52,335.905
			z"/>
	</g>
</g>
<g>
	<g>
		<path d="M52,235.905c-5.523,0-10,4.478-10,10v10c0,5.523,4.477,10,10,10s10-4.478,10-10v-10C62,240.383,57.523,235.905,52,235.905
			z"/>
	</g>
</g>
<g>
	<g>
		<path d="M52,285.905c-5.523,0-10,4.478-10,10v10c0,5.523,4.477,10,10,10s10-4.478,10-10v-10C62,290.383,57.523,285.905,52,285.905
			z"/>
	</g>
</g>
<g>
	<g>
		<path d="M88.667,64h-10c-5.523,0-10,4.478-10,10c0,5.522,4.477,10,10,10h10c5.522,0,10-4.478,10-10
			C98.667,68.478,94.19,64,88.667,64z"/>
	</g>
</g>
<g>
	<g>
		<path d="M364.475,492h-10c-5.523,0-10,4.478-10,10c0,5.522,4.477,10,10,10h10c5.523,0,10-4.478,10-10
			C374.475,496.478,369.998,492,364.475,492z"/>
	</g>
</g>
<g>
	<g>
		<path d="M214.475,492h-10c-5.523,0-10,4.478-10,10c0,5.522,4.477,10,10,10h10c5.523,0,10-4.478,10-10
			C224.475,496.478,219.998,492,214.475,492z"/>
	</g>
</g>
<g>
	<g>
		<path d="M396,464.953c-5.523,0-10,4.478-10,10V482c0,0.499-0.036,0.997-0.108,1.482c-0.806,5.464,2.97,10.546,8.434,11.352
			c0.495,0.073,0.986,0.108,1.472,0.108c4.877,0,9.148-3.573,9.881-8.542c0.213-1.447,0.322-2.929,0.322-4.4v-7.047
			C406,469.431,401.523,464.953,396,464.953z"/>
	</g>
</g>
<g>
	<g>
		<path d="M314.475,492h-10c-5.523,0-10,4.478-10,10c0,5.522,4.477,10,10,10h10c5.523,0,10-4.478,10-10
			C324.475,496.478,319.998,492,314.475,492z"/>
	</g>
</g>
<g>
	<g>
		<path d="M264.475,492h-10c-5.523,0-10,4.478-10,10c0,5.522,4.477,10,10,10h10c5.523,0,10-4.478,10-10
			C274.475,496.478,269.998,492,264.475,492z"/>
	</g>
</g>
<g>
	<g>
		<path d="M252.667,208h-72c-5.523,0-10,4.478-10,10c0,5.522,4.477,10,10,10h72c5.523,0,10-4.478,10-10
			C262.667,212.478,258.19,208,252.667,208z"/>
	</g>
</g>
<g>
	<g>
		<path d="M347,352H180.667c-5.523,0-10,4.478-10,10c0,5.522,4.477,10,10,10H347c5.523,0,10-4.478,10-10
			C357,356.478,352.523,352,347,352z"/>
	</g>
</g>
<g>
	<g>
		<path d="M400.31,354.93c-1.86-1.861-4.44-2.93-7.07-2.93s-5.21,1.069-7.07,2.93c-1.86,1.861-2.93,4.44-2.93,7.07
			s1.07,5.21,2.93,7.069c1.86,1.86,4.44,2.931,7.07,2.931s5.21-1.07,7.07-2.931c1.86-1.859,2.93-4.439,2.93-7.069
			S402.17,356.79,400.31,354.93z"/>
	</g>
</g>
<g>
	<g>
		<path d="M252.667,280h-72c-5.523,0-10,4.478-10,10c0,5.522,4.477,10,10,10h72c5.523,0,10-4.478,10-10
			C262.667,284.478,258.19,280,252.667,280z"/>
	</g>
</g>
<g>
	<g>
		<path d="M396,64H245.333c-5.523,0-10,4.478-10,10c0,5.522,4.477,10,10,10H386v52H180.667c-5.523,0-10,4.478-10,10
			c0,5.522,4.477,10,10,10H396c5.523,0,10-4.478,10-10V74C406,68.478,401.523,64,396,64z"/>
	</g>
</g>
<g>
	<g>
		<path d="M396,208h-98c-5.523,0-10,4.478-10,10v72c0,5.522,4.477,10,10,10h98c5.523,0,10-4.478,10-10v-72
			C406,212.478,401.523,208,396,208z M386,280h-78v-52h78V280z"/>
	</g>
</g>
<g>
</g>
<g>
</g>
<g>
</g>
<g>
</g>
<g>
</g>
<g>
</g>
<g>
</g>
<g>
</g>
<g>
</g>
<g>
</g>
<g>
</g>
<g>
</g>
<g>
</g>
<g>
</g>
<g>
</g>
</svg>
